<svg xmlns="http://www.w3.org/2000/svg" xmlns:xlink="http://www.w3.org/1999/xlink" width="500" zoomAndPan="magnify" viewBox="0 0 375 374.999991" height="500" preserveAspectRatio="xMidYMid meet" version="1.0"><defs><g/><clipPath id="6e612b3343"><path d="M 59 145.273438 L 71 145.273438 L 71 160 L 59 160 Z M 59 145.273438 " clip-rule="nonzero"/></clipPath><clipPath id="fd650f26cd"><path d="M 30 145.273438 L 41 145.273438 L 41 160 L 30 160 Z M 30 145.273438 " clip-rule="nonzero"/></clipPath><clipPath id="73690bc3d9"><path d="M 6.464844 168 L 22 168 L 22 180 L 6.464844 180 Z M 6.464844 168 " clip-rule="nonzero"/></clipPath><clipPath id="aa0135aae7"><path d="M 79 168 L 93.464844 168 L 93.464844 180 L 79 180 Z M 79 168 " clip-rule="nonzero"/></clipPath><clipPath id="3360260b1a"><path d="M 78 198 L 93.464844 198 L 93.464844 209 L 78 209 Z M 78 198 " clip-rule="nonzero"/></clipPath><clipPath id="489d974ce3"><path d="M 6.464844 198 L 22 198 L 22 209 L 6.464844 209 Z M 6.464844 198 " clip-rule="nonzero"/></clipPath></defs><g fill="#0045a5" fill-opacity="1"><g transform="translate(121.705419, 196.329902)"><g><path d="M 14.75 -8.796875 C 14.75 -6.785156 14.53125 -5.09375 14.09375 -3.71875 C 13.65625 -2.34375 12.851562 -1.304688 11.6875 -0.609375 C 10.519531 0.0859375 8.84375 0.4375 6.65625 0.4375 C 5.644531 0.4375 4.609375 0.351562 3.546875 0.1875 C 2.484375 0.0195312 1.703125 -0.128906 1.203125 -0.265625 L 1.328125 -6.109375 C 1.753906 -6.015625 2.238281 -5.894531 2.78125 -5.75 C 3.332031 -5.601562 3.945312 -5.53125 4.625 -5.53125 C 6.09375 -5.53125 7.082031 -5.921875 7.59375 -6.703125 C 8.101562 -7.484375 8.359375 -8.75 8.359375 -10.5 L 8.359375 -31.640625 L 14.75 -31.640625 Z M 14.75 -8.796875 "/></g></g></g><g fill="#0045a5" fill-opacity="1"><g transform="translate(141.48144, 196.329902)"><g><path d="M 16.703125 0.4375 C 13.703125 0.4375 11.113281 -0.210938 8.9375 -1.515625 C 6.757812 -2.828125 5.070312 -4.6875 3.875 -7.09375 C 2.6875 -9.507812 2.09375 -12.394531 2.09375 -15.75 C 2.09375 -19.125 2.695312 -22.03125 3.90625 -24.46875 C 5.113281 -26.90625 6.8125 -28.78125 9 -30.09375 C 11.1875 -31.414062 13.753906 -32.078125 16.703125 -32.078125 C 19.628906 -32.078125 22.175781 -31.421875 24.34375 -30.109375 C 26.519531 -28.796875 28.203125 -26.921875 29.390625 -24.484375 C 30.585938 -22.046875 31.1875 -19.132812 31.1875 -15.75 C 31.1875 -12.414062 30.597656 -9.535156 29.421875 -7.109375 C 28.242188 -4.691406 26.566406 -2.828125 24.390625 -1.515625 C 22.222656 -0.210938 19.660156 0.4375 16.703125 0.4375 Z M 16.703125 -4.8125 C 18.242188 -4.8125 19.578125 -5.179688 20.703125 -5.921875 C 21.835938 -6.660156 22.710938 -7.828125 23.328125 -9.421875 C 23.941406 -11.015625 24.25 -13.097656 24.25 -15.671875 C 24.25 -18.304688 23.9375 -20.441406 23.3125 -22.078125 C 22.695312 -23.710938 21.820312 -24.910156 20.6875 -25.671875 C 19.5625 -26.441406 18.234375 -26.828125 16.703125 -26.828125 C 15.171875 -26.828125 13.832031 -26.441406 12.6875 -25.671875 C 11.550781 -24.910156 10.671875 -23.707031 10.046875 -22.0625 C 9.421875 -20.425781 9.109375 -18.296875 9.109375 -15.671875 C 9.109375 -13.085938 9.421875 -11 10.046875 -9.40625 C 10.671875 -7.820312 11.550781 -6.660156 12.6875 -5.921875 C 13.832031 -5.179688 15.171875 -4.8125 16.703125 -4.8125 Z M 16.703125 -4.8125 "/></g></g></g><g fill="#0045a5" fill-opacity="1"><g transform="translate(176.941825, 196.329902)"><g><path d="M 3.546875 0 L 3.546875 -31.640625 L 15.015625 -31.640625 C 19.148438 -31.640625 22.222656 -30.925781 24.234375 -29.5 C 26.242188 -28.082031 27.25 -26.03125 27.25 -23.34375 C 27.25 -21.769531 26.847656 -20.398438 26.046875 -19.234375 C 25.242188 -18.078125 23.8125 -17.070312 21.75 -16.21875 C 23.082031 -15.882812 24.15625 -15.429688 24.96875 -14.859375 C 25.78125 -14.285156 26.40625 -13.648438 26.84375 -12.953125 C 27.28125 -12.265625 27.578125 -11.546875 27.734375 -10.796875 C 27.898438 -10.046875 27.984375 -9.304688 27.984375 -8.578125 C 27.984375 -5.660156 26.988281 -3.5 25 -2.09375 C 23.019531 -0.695312 19.863281 0 15.53125 0 Z M 9.90625 -4.953125 L 15.671875 -4.953125 C 17.597656 -4.953125 19.050781 -5.335938 20.03125 -6.109375 C 21.019531 -6.878906 21.515625 -7.914062 21.515625 -9.21875 C 21.515625 -10.144531 21.269531 -10.925781 20.78125 -11.5625 C 20.300781 -12.195312 19.648438 -12.675781 18.828125 -13 C 18.003906 -13.320312 17.066406 -13.484375 16.015625 -13.484375 L 9.90625 -13.484375 Z M 9.90625 -18.5625 L 16.015625 -18.5625 C 16.671875 -18.5625 17.300781 -18.632812 17.90625 -18.78125 C 18.507812 -18.9375 19.046875 -19.175781 19.515625 -19.5 C 19.992188 -19.820312 20.375 -20.234375 20.65625 -20.734375 C 20.9375 -21.234375 21.078125 -21.828125 21.078125 -22.515625 C 21.078125 -23.890625 20.5625 -24.929688 19.53125 -25.640625 C 18.5 -26.347656 17.179688 -26.703125 15.578125 -26.703125 L 9.90625 -26.703125 Z M 9.90625 -18.5625 "/></g></g></g><g fill="#333333" fill-opacity="1"><g transform="translate(209.09331, 196.329902)"><g><path d="M 28.09375 0 L 21.46875 0 L 16.328125 -12.1875 L 9.90625 -12.1875 L 9.90625 0 L 3.546875 0 L 3.546875 -31.640625 L 16.890625 -31.640625 C 19.410156 -31.640625 21.472656 -31.238281 23.078125 -30.4375 C 24.691406 -29.632812 25.875 -28.519531 26.625 -27.09375 C 27.382812 -25.675781 27.765625 -24.039062 27.765625 -22.1875 C 27.765625 -20.519531 27.503906 -19.113281 26.984375 -17.96875 C 26.472656 -16.832031 25.796875 -15.882812 24.953125 -15.125 C 24.117188 -14.363281 23.207031 -13.742188 22.21875 -13.265625 Z M 15.75 -17.109375 C 17.457031 -17.109375 18.8125 -17.566406 19.8125 -18.484375 C 20.8125 -19.410156 21.3125 -20.59375 21.3125 -22.03125 C 21.3125 -23.488281 20.828125 -24.640625 19.859375 -25.484375 C 18.898438 -26.335938 17.6875 -26.765625 16.21875 -26.765625 L 9.90625 -26.765625 L 9.90625 -17.109375 Z M 15.75 -17.109375 "/></g></g></g><g fill="#333333" fill-opacity="1"><g transform="translate(241.731822, 196.329902)"><g><path d="M 3.546875 0 L 3.546875 -31.640625 L 25.28125 -31.640625 L 25.25 -26.265625 L 9.953125 -26.265625 L 9.953125 -18.578125 L 23.234375 -18.578125 L 23.234375 -13.3125 L 9.90625 -13.3125 L 9.90625 -5.453125 L 25.5 -5.421875 L 25.5 0 Z M 3.546875 0 "/></g></g></g><g fill="#333333" fill-opacity="1"><g transform="translate(271.679704, 196.329902)"><g><path d="M 1.203125 0 L 12.53125 -31.640625 L 19.28125 -31.640625 L 30.59375 0 L 24.21875 0 L 21.640625 -7.328125 L 10.265625 -7.328125 L 7.609375 0 Z M 11.6875 -12.90625 L 20.109375 -12.90625 L 15.9375 -25.46875 Z M 11.6875 -12.90625 "/></g></g></g><g fill="#333333" fill-opacity="1"><g transform="translate(305.652592, 196.329902)"><g><path d="M 3.546875 -31.640625 C 3.703125 -31.640625 4.148438 -31.640625 4.890625 -31.640625 C 5.628906 -31.640625 6.5 -31.640625 7.5 -31.640625 C 8.5 -31.640625 9.492188 -31.632812 10.484375 -31.625 C 11.484375 -31.625 12.320312 -31.613281 13 -31.59375 C 16.832031 -31.507812 19.957031 -30.820312 22.375 -29.53125 C 24.800781 -28.25 26.578125 -26.457031 27.703125 -24.15625 C 28.835938 -21.851562 29.40625 -19.125 29.40625 -15.96875 C 29.40625 -12.6875 28.804688 -9.851562 27.609375 -7.46875 C 26.421875 -5.082031 24.597656 -3.238281 22.140625 -1.9375 C 19.679688 -0.644531 16.5625 0 12.78125 0 L 3.546875 0 Z M 9.984375 -26.484375 L 9.984375 -5.171875 L 12.90625 -5.171875 C 14.71875 -5.171875 16.363281 -5.519531 17.84375 -6.21875 C 19.320312 -6.914062 20.503906 -8.054688 21.390625 -9.640625 C 22.285156 -11.234375 22.734375 -13.359375 22.734375 -16.015625 C 22.734375 -18.484375 22.335938 -20.484375 21.546875 -22.015625 C 20.765625 -23.554688 19.644531 -24.6875 18.1875 -25.40625 C 16.726562 -26.125 15 -26.484375 13 -26.484375 Z M 9.984375 -26.484375 "/></g></g></g><g fill="#333333" fill-opacity="1"><g transform="translate(339.341111, 196.329902)"><g><path d="M 28.796875 -31.640625 L 17.796875 -13.3125 L 17.796875 0 L 11.40625 0 L 11.40625 -13.328125 L 0.421875 -31.640625 L 7.328125 -31.640625 L 14.625 -18.8125 L 21.8125 -31.640625 Z M 28.796875 -31.640625 "/></g></g></g><g fill="#333333" fill-opacity="1"><g transform="translate(198.849896, 219.278327)"><g><path d="M 1.0625 0 L 1.0625 -9.4375 L 4.53125 -9.4375 C 5.21875 -9.4375 5.832031 -9.316406 6.375 -9.078125 C 6.925781 -8.847656 7.359375 -8.5 7.671875 -8.03125 C 7.984375 -7.570312 8.140625 -7.007812 8.140625 -6.34375 C 8.140625 -5.71875 8 -5.179688 7.71875 -4.734375 C 7.445312 -4.296875 7.054688 -3.957031 6.546875 -3.71875 C 6.046875 -3.488281 5.457031 -3.375 4.78125 -3.375 L 2.984375 -3.375 L 2.984375 0 Z M 2.953125 -4.84375 L 4.734375 -4.84375 C 5.210938 -4.84375 5.601562 -4.992188 5.90625 -5.296875 C 6.207031 -5.609375 6.359375 -5.992188 6.359375 -6.453125 C 6.359375 -6.921875 6.195312 -7.289062 5.875 -7.5625 C 5.550781 -7.84375 5.160156 -7.984375 4.703125 -7.984375 L 2.953125 -7.984375 Z M 2.953125 -4.84375 "/></g></g></g><g fill="#333333" fill-opacity="1"><g transform="translate(211.636975, 219.278327)"><g><path d="M 0.359375 0 L 3.75 -9.4375 L 5.75 -9.4375 L 9.125 0 L 7.234375 0 L 6.453125 -2.1875 L 3.0625 -2.1875 L 2.265625 0 Z M 3.484375 -3.859375 L 6 -3.859375 L 4.75 -7.609375 Z M 3.484375 -3.859375 "/></g></g></g><g fill="#333333" fill-opacity="1"><g transform="translate(225.391103, 219.278327)"><g><path d="M 0.25 -7.75 L 0.25 -9.4375 L 7.8125 -9.4375 L 7.8125 -7.75 L 5.015625 -7.75 L 5.015625 0 L 3.109375 0 L 3.109375 -7.75 Z M 0.25 -7.75 "/></g></g></g><g fill="#333333" fill-opacity="1"><g transform="translate(237.701214, 219.278327)"><g><path d="M 7.09375 -4.0625 L 2.953125 -4.0625 L 2.953125 0 L 1.0625 0 L 1.0625 -9.4375 L 2.953125 -9.4375 L 2.953125 -5.65625 L 7.09375 -5.65625 L 7.09375 -9.4375 L 9 -9.4375 L 9 0 L 7.09375 0 Z M 7.09375 -4.0625 "/></g></g></g><g fill="#333333" fill-opacity="1"><g transform="translate(252.023801, 219.278327)"><g><path d="M 12.40625 -9.4375 L 9.609375 0 L 8.09375 0 L 6.3125 -6.171875 L 4.53125 0 L 3.03125 0 L 0.25 -9.4375 L 2.109375 -9.4375 L 3.875 -3.203125 L 5.625 -9.4375 L 7.015625 -9.4375 L 8.78125 -3.203125 L 10.546875 -9.4375 Z M 12.40625 -9.4375 "/></g></g></g><g fill="#333333" fill-opacity="1"><g transform="translate(268.940405, 219.278327)"><g><path d="M 0.359375 0 L 3.75 -9.4375 L 5.75 -9.4375 L 9.125 0 L 7.234375 0 L 6.453125 -2.1875 L 3.0625 -2.1875 L 2.265625 0 Z M 3.484375 -3.859375 L 6 -3.859375 L 4.75 -7.609375 Z M 3.484375 -3.859375 "/></g></g></g><g fill="#333333" fill-opacity="1"><g transform="translate(282.694536, 219.278327)"><g><path d="M 8.59375 -9.4375 L 5.3125 -3.96875 L 5.3125 0 L 3.40625 0 L 3.40625 -3.984375 L 0.125 -9.4375 L 2.1875 -9.4375 L 4.359375 -5.609375 L 6.515625 -9.4375 Z M 8.59375 -9.4375 "/></g></g></g><g clip-path="url(#6e612b3343)"><path fill="#0045a5" d="M 61.847656 159.261719 C 63.152344 156.773438 64.25 154.160156 65.554688 151.671875 C 64.632812 154.386719 63.621094 157.085938 62.734375 159.820312 C 65.660156 159.417969 68.566406 157.609375 69.609375 154.753906 C 70.882812 151.621094 69.925781 148.085938 68.234375 145.300781 C 65.308594 145.875 62.457031 147.476562 60.921875 150.089844 C 59.496094 152.386719 59.601562 155.347656 60.730469 157.75 C 61.078125 158.253906 61.203125 159.054688 61.847656 159.261719 Z M 61.847656 159.261719 " fill-opacity="1" fill-rule="nonzero"/></g><g clip-path="url(#fd650f26cd)"><path fill="#0045a5" d="M 37.59375 159.890625 C 37.054688 158.199219 36.375 156.546875 35.886719 154.839844 C 35.730469 154.894531 35.402344 154.996094 35.242188 155.066406 C 36.253906 154.320312 34.929688 152.976562 34.824219 151.984375 C 36.234375 154.40625 37.261719 157 38.535156 159.507812 C 40.03125 157.347656 40.882812 154.578125 40.171875 151.984375 C 39.160156 148.363281 35.625 145.875 32.003906 145.335938 C 30.230469 148.328125 29.273438 152.265625 31.011719 155.484375 C 32.230469 158.007812 34.964844 159.351562 37.59375 159.890625 Z M 37.59375 159.890625 " fill-opacity="1" fill-rule="nonzero"/></g><path fill="#0045a5" d="M 23.421875 173.242188 C 23.789062 173.835938 24.1875 174.410156 24.605469 174.964844 C 25.320312 175.835938 26.121094 176.65625 27.007812 177.351562 C 27.6875 177.839844 28.402344 178.273438 29.132812 178.65625 C 29.882812 179.003906 30.628906 179.320312 31.414062 179.5625 C 34.285156 180.347656 37.296875 180.347656 40.207031 179.71875 C 38.636719 177.839844 36.898438 176.097656 35.3125 174.234375 C 34.269531 173.035156 33.1875 171.851562 32.109375 170.667969 C 31.378906 169.847656 30.628906 169.011719 29.898438 168.195312 C 30.210938 168.386719 30.527344 168.59375 30.820312 168.820312 C 31.9375 169.867188 33.066406 170.894531 34.214844 171.886719 C 35.070312 172.632812 35.921875 173.382812 36.777344 174.132812 C 38.359375 175.574219 39.925781 177.039062 41.582031 178.394531 C 42.035156 175.609375 42.136719 172.722656 41.460938 169.96875 C 41.128906 168.820312 40.691406 167.722656 40.152344 166.664062 C 39.890625 166.191406 39.613281 165.722656 39.316406 165.253906 C 38.394531 164.328125 37.523438 163.355469 36.496094 162.535156 C 35.957031 162.152344 35.402344 161.789062 34.824219 161.4375 C 30.769531 159.210938 25.914062 158.863281 21.4375 159.734375 C 20.878906 162.972656 20.914062 166.332031 21.820312 169.515625 C 22.238281 170.824219 22.726562 172.078125 23.421875 173.242188 Z M 23.421875 173.242188 " fill-opacity="1" fill-rule="nonzero"/><path fill="#0045a5" d="M 41.894531 165.199219 C 42.519531 167.429688 43.511719 169.570312 45.027344 171.34375 C 46.300781 172.824219 47.8125 174.078125 49.398438 175.175781 C 49.46875 173.503906 49.570312 171.832031 49.675781 170.160156 C 49.832031 167.6875 49.902344 165.21875 50.113281 162.746094 C 50.199219 161.386719 50.214844 160.027344 50.234375 158.671875 C 50.339844 159.316406 50.441406 159.960938 50.511719 160.605469 C 50.5625 161.890625 50.617188 163.199219 50.6875 164.484375 C 50.753906 165.808594 50.859375 167.132812 50.929688 168.457031 C 51.035156 170.703125 51.140625 172.929688 51.242188 175.175781 C 53.382812 173.765625 55.300781 172.007812 56.726562 169.867188 C 56.972656 169.5 57.179688 169.132812 57.40625 168.769531 C 57.945312 167.707031 58.347656 166.59375 58.675781 165.460938 C 59.09375 163.597656 59.113281 161.648438 58.800781 159.769531 C 58.554688 158.722656 58.257812 157.679688 57.875 156.6875 C 56.363281 152.996094 53.574219 150 50.355469 147.71875 C 46.472656 150.347656 43.199219 154.179688 42.050781 158.808594 C 41.546875 160.828125 41.5625 162.917969 41.808594 164.992188 Z M 41.894531 165.199219 " fill-opacity="1" fill-rule="nonzero"/><g clip-path="url(#73690bc3d9)"><path fill="#0045a5" d="M 12.714844 178.675781 C 15.429688 179.683594 18.476562 178.882812 20.777344 177.246094 C 18.304688 176.027344 15.796875 174.878906 13.359375 173.644531 C 16.023438 174.410156 18.582031 175.453125 21.210938 176.324219 C 20.777344 174.425781 20.027344 172.5625 18.6875 171.117188 C 16.285156 168.59375 12.453125 168.386719 9.304688 169.414062 C 8.484375 169.777344 7.667969 170.144531 6.917969 170.648438 C 6.464844 171.117188 6.882812 171.796875 7.003906 172.320312 C 7.910156 175.070312 9.84375 177.71875 12.714844 178.675781 Z M 12.714844 178.675781 " fill-opacity="1" fill-rule="nonzero"/></g><g clip-path="url(#aa0135aae7)"><path fill="#0045a5" d="M 86.984375 173.679688 C 84.476562 174.742188 82.074219 175.976562 79.636719 177.160156 C 81.953125 179.109375 85.417969 179.648438 88.203125 178.449219 C 91.214844 177.039062 93.132812 173.9375 93.6875 170.734375 C 92.730469 170.214844 91.773438 169.707031 90.761719 169.324219 C 88.796875 168.699219 86.742188 168.648438 84.738281 169.097656 C 81.78125 170.214844 79.636719 173 79.273438 176.132812 C 81.902344 175.507812 84.375 174.355469 86.984375 173.679688 Z M 86.984375 173.679688 " fill-opacity="1" fill-rule="nonzero"/></g><g clip-path="url(#3360260b1a)"><path fill="#0045a5" d="M 88.273438 199.183594 C 85.367188 197.929688 81.902344 198.417969 79.445312 200.402344 C 81.761719 201.796875 84.339844 202.699219 86.6875 204.039062 C 84.164062 203.046875 81.570312 202.265625 78.996094 201.410156 C 79.289062 204.425781 81.398438 207.226562 84.234375 208.304688 C 87.367188 209.386719 90.902344 208.496094 93.550781 206.601562 C 93.234375 205.554688 92.886719 204.527344 92.433594 203.554688 C 91.460938 201.742188 90.03125 200.261719 88.273438 199.183594 Z M 88.273438 199.183594 " fill-opacity="1" fill-rule="nonzero"/></g><path fill="#0045a5" d="M 59.148438 178.429688 C 60.992188 176.8125 62.785156 175.140625 64.632812 173.523438 C 66.652344 171.695312 68.707031 169.917969 70.65625 168.019531 L 70.792969 168.105469 C 70.375 168.578125 69.957031 169.066406 69.558594 169.535156 C 68.269531 171.066406 66.910156 172.546875 65.570312 174.042969 C 65.171875 174.496094 64.769531 174.964844 64.371094 175.417969 C 63.0625 176.847656 61.707031 178.238281 60.523438 179.773438 C 63.132812 180.257812 65.832031 180.363281 68.460938 179.804688 C 69.628906 179.511719 70.777344 179.074219 71.855469 178.554688 C 72.484375 178.203125 73.109375 177.820312 73.703125 177.402344 C 75.667969 175.925781 77.113281 173.851562 78.125 171.625 C 78.59375 170.492188 78.925781 169.308594 79.203125 168.125 C 79.8125 165.375 79.691406 162.519531 79.253906 159.75 C 76.332031 159.195312 73.265625 159.140625 70.359375 159.835938 C 67.226562 160.570312 64.160156 162.066406 62.070312 164.574219 C 60.851562 165.878906 60.105469 167.53125 59.410156 169.152344 C 59.320312 169.5 59.164062 170.160156 59.09375 170.507812 C 58.554688 173.085938 58.640625 175.800781 59.148438 178.429688 Z M 59.148438 178.429688 " fill-opacity="1" fill-rule="nonzero"/><path fill="#0045a5" d="M 27.601562 188.144531 C 28.992188 188.023438 30.386719 187.917969 31.777344 187.851562 C 33.484375 187.816406 35.207031 187.691406 36.914062 187.570312 C 36.828125 187.398438 36.636719 187.03125 36.550781 186.859375 C 35.296875 185.378906 34.042969 183.863281 32.476562 182.695312 C 31.378906 181.878906 30.195312 181.164062 28.90625 180.710938 C 28.699219 180.640625 28.28125 180.503906 28.070312 180.414062 C 26.398438 179.910156 24.625 179.804688 22.882812 179.875 C 21.613281 180.03125 20.359375 180.328125 19.140625 180.746094 C 15.171875 182.140625 12 185.097656 9.53125 188.441406 C 11.601562 191.628906 14.507812 194.328125 17.992188 195.859375 C 19.679688 196.589844 21.457031 197.078125 23.300781 197.214844 C 24.726562 197.285156 26.171875 197.148438 27.566406 196.816406 C 28.089844 196.660156 28.609375 196.484375 29.132812 196.292969 C 29.253906 196.242188 29.515625 196.121094 29.636719 196.066406 C 32.632812 194.65625 35.175781 192.308594 36.878906 189.46875 C 34.566406 189.328125 32.25 189.242188 29.933594 189.085938 C 29.183594 189.050781 28.4375 189 27.6875 188.980469 C 26.800781 188.945312 25.894531 188.929688 25.007812 188.945312 L 24.902344 188.234375 C 25.5625 188.214844 26.226562 188.179688 26.886719 188.164062 C 27.0625 188.164062 27.410156 188.144531 27.601562 188.144531 Z M 27.601562 188.144531 " fill-opacity="1" fill-rule="nonzero"/><path fill="#0045a5" d="M 38.882812 212.242188 C 39.507812 211.421875 40.066406 210.535156 40.554688 209.613281 C 40.851562 208.96875 41.09375 208.304688 41.320312 207.628906 C 42.191406 204.71875 42.015625 201.621094 41.597656 198.660156 C 39.789062 200.089844 38.132812 201.707031 36.394531 203.238281 C 35.59375 203.953125 34.773438 204.667969 34.007812 205.398438 C 32.632812 206.566406 31.257812 207.714844 30.003906 208.984375 L 30.054688 208.777344 C 30.769531 207.820312 31.605469 206.984375 32.40625 206.09375 C 33.574219 204.808594 34.703125 203.484375 35.871094 202.195312 C 37.296875 200.578125 38.761719 199.007812 40.171875 197.371094 C 39.769531 197.269531 39.371094 197.148438 38.96875 197.023438 C 36.8125 196.851562 34.617188 196.832031 32.476562 197.234375 C 31.011719 197.546875 29.601562 198.105469 28.316406 198.835938 C 26.972656 199.652344 25.773438 200.679688 24.761719 201.882812 C 24.292969 202.472656 23.859375 203.082031 23.457031 203.710938 C 22.933594 204.71875 22.464844 205.746094 22.066406 206.808594 C 20.933594 210.167969 20.96875 213.753906 21.367188 217.21875 C 24.449219 218.003906 27.773438 217.847656 30.875 217.183594 C 33.222656 216.539062 35.46875 215.445312 37.316406 213.84375 C 37.890625 213.371094 38.394531 212.816406 38.882812 212.242188 Z M 38.882812 212.242188 " fill-opacity="1" fill-rule="nonzero"/><path fill="#0045a5" d="M 54.480469 189.207031 C 54.082031 187.222656 52.707031 185.046875 50.441406 185.0625 C 47.953125 184.925781 46.28125 187.449219 46.195312 189.710938 C 45.96875 192.238281 47.585938 195.335938 50.425781 195.25 C 53.402344 195.214844 54.863281 191.800781 54.480469 189.207031 Z M 54.480469 189.207031 " fill-opacity="1" fill-rule="nonzero"/><path fill="#0045a5" d="M 70.464844 189.121094 C 68.21875 189.207031 65.988281 189.347656 63.742188 189.484375 C 64.769531 191.070312 66.007812 192.53125 67.453125 193.785156 C 68.738281 194.867188 70.203125 195.71875 71.769531 196.347656 C 73.476562 197.042969 75.304688 197.25 77.132812 197.234375 C 77.652344 197.179688 78.160156 197.128906 78.679688 197.078125 C 80.472656 196.796875 82.164062 196.121094 83.800781 195.335938 C 86.777344 193.699219 89.265625 191.28125 91.179688 188.492188 C 89.421875 186.074219 87.296875 183.863281 84.757812 182.242188 C 82.199219 180.816406 79.289062 179.613281 76.296875 179.875 C 74.675781 179.738281 73.074219 180.191406 71.59375 180.78125 C 71.089844 180.957031 70.621094 181.183594 70.148438 181.410156 C 67.539062 182.886719 65.398438 185.082031 63.707031 187.535156 C 66.460938 187.832031 69.246094 187.78125 72.011719 188.058594 L 72.257812 188.058594 C 71.472656 188.335938 70.65625 188.40625 69.835938 188.390625 C 69.835938 188.441406 69.835938 188.546875 69.835938 188.597656 C 71.054688 188.546875 72.308594 188.492188 73.492188 188.910156 C 73.003906 188.929688 72.519531 188.964844 72.03125 189 C 71.507812 189.050781 70.984375 189.085938 70.464844 189.121094 Z M 70.464844 189.121094 " fill-opacity="1" fill-rule="nonzero"/><path fill="#0045a5" d="M 47.777344 198.15625 C 46.820312 195.195312 45.339844 192.445312 43.582031 189.886719 C 41.652344 187.171875 39.214844 184.699219 36.113281 183.394531 C 37.4375 184.820312 38.8125 186.195312 39.945312 187.796875 C 42.207031 190.898438 43.722656 194.5 44.574219 198.226562 C 44.90625 199.757812 45.097656 201.324219 45.203125 202.890625 C 45.375 205.589844 45.082031 208.289062 44.539062 210.917969 L 44.417969 211.476562 C 43.128906 217.21875 40.015625 222.40625 36.042969 226.691406 C 42.347656 224.289062 47.710938 218.910156 48.929688 212.136719 C 49.152344 211.003906 49.3125 209.875 49.363281 208.722656 C 49.398438 207.105469 49.378906 205.46875 49.136719 203.867188 C 48.875 201.917969 48.421875 200 47.777344 198.15625 Z M 47.777344 198.15625 " fill-opacity="1" fill-rule="nonzero"/><g clip-path="url(#489d974ce3)"><path fill="#0045a5" d="M 13.167969 204.09375 C 15.675781 202.890625 18.390625 202.003906 20.585938 200.28125 C 19.886719 199.898438 19.191406 199.515625 18.441406 199.199219 C 16.492188 198.347656 14.195312 198.277344 12.246094 199.183594 C 9.304688 200.472656 7.511719 203.414062 6.640625 206.410156 C 6.710938 206.601562 6.847656 206.964844 6.933594 207.15625 C 7.40625 207.402344 7.859375 207.644531 8.347656 207.871094 C 11.566406 209.402344 15.796875 209.332031 18.53125 206.808594 C 19.976562 205.328125 20.8125 203.398438 21.230469 201.394531 C 18.53125 202.28125 15.902344 203.363281 13.167969 204.09375 Z M 13.167969 204.09375 " fill-opacity="1" fill-rule="nonzero"/></g><path fill="#0045a5" d="M 77.722656 204.582031 C 77.375 203.917969 76.976562 203.292969 76.558594 202.683594 C 75.878906 201.761719 75.113281 200.90625 74.277344 200.125 C 73.160156 199.269531 71.976562 198.539062 70.707031 197.980469 C 69.4375 197.476562 68.113281 197.164062 66.753906 197.023438 C 64.667969 196.746094 62.558594 196.972656 60.488281 197.320312 C 61.515625 198.523438 62.578125 199.707031 63.640625 200.871094 C 64.371094 201.691406 65.101562 202.492188 65.832031 203.292969 C 66.789062 204.390625 67.746094 205.46875 68.707031 206.546875 C 69.539062 207.539062 70.429688 208.464844 71.300781 209.421875 C 70.445312 208.722656 69.628906 207.992188 68.828125 207.246094 C 67.730469 206.234375 66.597656 205.277344 65.484375 204.300781 C 63.34375 202.492188 61.429688 200.351562 59.078125 198.800781 C 58.660156 201.863281 58.503906 205.085938 59.53125 208.046875 C 60.035156 209.578125 60.835938 211.003906 61.847656 212.277344 C 62.4375 212.988281 63.082031 213.632812 63.796875 214.226562 C 64.230469 214.554688 64.683594 214.871094 65.152344 215.148438 C 66.632812 216.070312 68.253906 216.765625 69.957031 217.167969 C 73.039062 217.898438 76.382812 218.125 79.429688 217.132812 C 79.5 214.363281 79.863281 211.542969 79.167969 208.8125 C 78.855469 207.367188 78.351562 205.9375 77.722656 204.582031 Z M 77.722656 204.582031 " fill-opacity="1" fill-rule="nonzero"/><path fill="#0045a5" d="M 55.789062 208.132812 C 55.59375 206.410156 55.492188 204.683594 55.59375 202.960938 C 55.753906 200.855469 56.046875 198.75 56.621094 196.695312 L 56.621094 196.660156 C 58 191.574219 60.886719 187.050781 64.667969 183.425781 C 60.730469 185.0625 57.894531 188.527344 55.769531 192.113281 C 54.761719 193.925781 53.785156 195.789062 53.140625 197.773438 C 52.425781 199.863281 51.886719 202.039062 51.644531 204.230469 C 51.503906 205.539062 51.417969 206.859375 51.453125 208.183594 C 51.554688 210.066406 51.835938 211.925781 52.359375 213.71875 C 54.046875 219.640625 58.867188 224.167969 64.40625 226.585938 L 64.648438 226.535156 C 62.195312 223.851562 60.019531 220.894531 58.503906 217.550781 C 57.109375 214.574219 56.171875 211.386719 55.789062 208.132812 Z M 55.789062 208.132812 " fill-opacity="1" fill-rule="nonzero"/></svg>