<svg xmlns="http://www.w3.org/2000/svg" xmlns:xlink="http://www.w3.org/1999/xlink" width="500" zoomAndPan="magnify" viewBox="0 0 375 374.999991" height="500" preserveAspectRatio="xMidYMid meet" version="1.0"><defs><clipPath id="dbc34fd38d"><path d="M 187.5 0 C 83.945312 0 0 83.945312 0 187.5 C 0 291.054688 83.945312 375 187.5 375 C 291.054688 375 375 291.054688 375 187.5 C 375 83.945312 291.054688 0 187.5 0 Z M 187.5 0 " clip-rule="nonzero"/></clipPath><clipPath id="29f138bc7f"><path d="M 218 59.664062 L 251 59.664062 L 251 106 L 218 106 Z M 218 59.664062 " clip-rule="nonzero"/></clipPath><clipPath id="13ff9be45f"><path d="M 124 59.664062 L 158 59.664062 L 158 106 L 124 106 Z M 124 59.664062 " clip-rule="nonzero"/></clipPath><clipPath id="2a2272adb3"><path d="M 279 133 L 324.34375 133 L 324.34375 166 L 279 166 Z M 279 133 " clip-rule="nonzero"/></clipPath><clipPath id="5b204b3b09"><path d="M 143 179 L 186 179 L 186 315.414062 L 143 315.414062 Z M 143 179 " clip-rule="nonzero"/></clipPath></defs><g clip-path="url(#dbc34fd38d)"><rect x="-37.5" width="450" fill="#0045a5" y="-37.499999" height="449.999989" fill-opacity="1"/></g><g clip-path="url(#29f138bc7f)"><path fill="#ffffff" d="M 224.445312 103.578125 C 228.542969 95.765625 231.984375 87.566406 236.085938 79.75 C 233.1875 88.277344 230.019531 96.75 227.230469 105.328125 C 236.414062 104.070312 245.539062 98.386719 248.820312 89.425781 C 252.808594 79.585938 249.800781 68.492188 244.5 59.75 C 235.320312 61.550781 226.355469 66.582031 221.546875 74.777344 C 217.066406 81.992188 217.394531 91.28125 220.945312 98.824219 C 222.039062 100.410156 222.421875 102.925781 224.445312 103.578125 Z M 224.445312 103.578125 " fill-opacity="1" fill-rule="nonzero"/></g><g clip-path="url(#13ff9be45f)"><path fill="#ffffff" d="M 148.3125 105.546875 C 146.617188 100.246094 144.488281 95.054688 142.957031 89.699219 C 142.464844 89.863281 141.425781 90.191406 140.933594 90.410156 C 144.105469 88.058594 139.953125 83.851562 139.625 80.734375 C 144.050781 88.332031 147.273438 96.476562 151.265625 104.34375 C 155.964844 97.566406 158.640625 88.878906 156.402344 80.734375 C 153.230469 69.367188 142.136719 61.550781 130.769531 59.859375 C 125.195312 69.257812 122.1875 81.609375 127.65625 91.71875 C 131.480469 99.644531 140.0625 103.851562 148.3125 105.546875 Z M 148.3125 105.546875 " fill-opacity="1" fill-rule="nonzero"/></g><path fill="#ffffff" d="M 103.824219 147.464844 C 104.972656 149.324219 106.230469 151.128906 107.542969 152.875 C 109.78125 155.609375 112.296875 158.175781 115.085938 160.363281 C 117.214844 161.894531 119.457031 163.261719 121.753906 164.460938 C 124.101562 165.554688 126.453125 166.539062 128.910156 167.304688 C 137.929688 169.765625 147.382812 169.765625 156.511719 167.796875 C 151.59375 161.894531 146.128906 156.429688 141.152344 150.582031 C 137.875 146.808594 134.484375 143.09375 131.097656 139.378906 C 128.800781 136.808594 126.453125 134.183594 124.15625 131.617188 C 125.140625 132.21875 126.125 132.875 127.054688 133.582031 C 130.550781 136.863281 134.101562 140.085938 137.710938 143.203125 C 140.386719 145.554688 143.066406 147.902344 145.746094 150.253906 C 150.71875 154.789062 155.636719 159.378906 160.828125 163.644531 C 162.25 154.898438 162.578125 145.824219 160.445312 137.191406 C 159.40625 133.582031 158.042969 130.140625 156.347656 126.808594 C 155.527344 125.332031 154.652344 123.855469 153.722656 122.378906 C 150.828125 119.484375 148.09375 116.421875 144.871094 113.855469 C 143.175781 112.652344 141.425781 111.503906 139.625 110.410156 C 126.890625 103.414062 111.640625 102.324219 97.59375 105.054688 C 95.847656 115.222656 95.957031 125.769531 98.796875 135.769531 C 100.109375 139.867188 101.640625 143.804688 103.824219 147.464844 Z M 103.824219 147.464844 " fill-opacity="1" fill-rule="nonzero"/><path fill="#ffffff" d="M 161.8125 122.214844 C 163.78125 129.210938 166.894531 135.933594 171.648438 141.507812 C 175.640625 146.152344 180.394531 150.089844 185.367188 153.53125 C 185.585938 148.285156 185.914062 143.039062 186.242188 137.792969 C 186.734375 130.03125 186.953125 122.269531 187.609375 114.511719 C 187.882812 110.246094 187.9375 105.984375 187.992188 101.722656 C 188.320312 103.742188 188.648438 105.765625 188.863281 107.789062 C 189.027344 111.832031 189.191406 115.929688 189.410156 119.976562 C 189.628906 124.128906 189.957031 128.28125 190.175781 132.4375 C 190.503906 139.488281 190.832031 146.480469 191.160156 153.53125 C 197.882812 149.105469 203.894531 143.585938 208.375 136.863281 C 209.140625 135.714844 209.796875 134.566406 210.507812 133.421875 C 212.203125 130.085938 213.457031 126.589844 214.496094 123.035156 C 215.808594 117.1875 215.863281 111.066406 214.878906 105.164062 C 214.113281 101.886719 213.183594 98.605469 211.984375 95.492188 C 207.226562 83.90625 198.484375 74.503906 188.375 67.34375 C 176.1875 75.597656 165.910156 87.621094 162.304688 102.160156 C 160.71875 108.5 160.773438 115.058594 161.539062 121.558594 Z M 161.8125 122.214844 " fill-opacity="1" fill-rule="nonzero"/><path fill="#ffffff" d="M 70.214844 164.515625 C 78.742188 167.6875 88.304688 165.171875 95.519531 160.035156 C 87.757812 156.210938 79.886719 152.601562 72.238281 148.722656 C 80.597656 151.128906 88.632812 154.40625 96.886719 157.140625 C 95.519531 151.183594 93.167969 145.335938 88.960938 140.796875 C 81.417969 132.875 69.394531 132.21875 59.503906 135.441406 C 56.933594 136.589844 54.367188 137.738281 52.015625 139.324219 C 50.59375 140.796875 51.90625 142.929688 52.289062 144.570312 C 55.128906 153.203125 61.195312 161.511719 70.214844 164.515625 Z M 70.214844 164.515625 " fill-opacity="1" fill-rule="nonzero"/><g clip-path="url(#2a2272adb3)"><path fill="#ffffff" d="M 303.363281 148.832031 C 295.492188 152.164062 287.949219 156.046875 280.296875 159.761719 C 287.566406 165.882812 298.441406 167.578125 307.1875 163.808594 C 316.640625 159.378906 322.65625 149.652344 324.402344 139.597656 C 321.398438 137.957031 318.390625 136.371094 315.222656 135.167969 C 309.046875 133.203125 302.597656 133.039062 296.3125 134.457031 C 287.019531 137.957031 280.296875 146.699219 279.152344 156.539062 C 287.402344 154.570312 295.164062 150.964844 303.363281 148.832031 Z M 303.363281 148.832031 " fill-opacity="1" fill-rule="nonzero"/></g><path fill="#ffffff" d="M 307.40625 228.898438 C 298.28125 224.960938 287.402344 226.492188 279.699219 232.722656 C 286.964844 237.09375 295.054688 239.9375 302.433594 244.144531 C 294.507812 241.03125 286.363281 238.570312 278.277344 235.894531 C 279.207031 245.347656 285.820312 254.148438 294.726562 257.535156 C 304.5625 260.925781 315.660156 258.136719 323.964844 252.179688 C 322.980469 248.902344 321.890625 245.675781 320.46875 242.617188 C 317.40625 236.933594 312.925781 232.285156 307.40625 228.898438 Z M 307.40625 228.898438 " fill-opacity="1" fill-rule="nonzero"/><path fill="#ffffff" d="M 215.972656 163.753906 C 221.765625 158.667969 227.394531 153.421875 233.1875 148.339844 C 239.527344 142.601562 245.976562 137.027344 252.097656 131.070312 L 252.535156 131.34375 C 251.222656 132.820312 249.910156 134.347656 248.65625 135.824219 C 244.609375 140.632812 240.347656 145.28125 236.140625 149.980469 C 234.882812 151.402344 233.625 152.875 232.367188 154.296875 C 228.269531 158.777344 224.007812 163.152344 220.289062 167.960938 C 228.488281 169.492188 236.960938 169.820312 245.210938 168.070312 C 248.875 167.140625 252.480469 165.773438 255.867188 164.132812 C 257.835938 163.042969 259.804688 161.839844 261.664062 160.527344 C 267.839844 155.882812 272.375 149.378906 275.542969 142.382812 C 277.019531 138.832031 278.058594 135.113281 278.933594 131.398438 C 280.84375 122.761719 280.460938 113.800781 279.097656 105.109375 C 269.914062 103.359375 260.296875 103.195312 251.167969 105.382812 C 241.332031 107.679688 231.710938 112.378906 225.15625 120.25 C 221.328125 124.347656 218.980469 129.539062 216.792969 134.621094 C 216.519531 135.714844 216.027344 137.792969 215.808594 138.886719 C 214.113281 146.972656 214.386719 155.5 215.972656 163.753906 Z M 215.972656 163.753906 " fill-opacity="1" fill-rule="nonzero"/><path fill="#ffffff" d="M 116.941406 194.25 C 121.316406 193.867188 125.6875 193.539062 130.058594 193.320312 C 135.414062 193.210938 140.824219 192.828125 146.183594 192.445312 C 145.910156 191.898438 145.308594 190.75 145.035156 190.203125 C 141.097656 185.558594 137.164062 180.804688 132.246094 177.140625 C 128.800781 174.574219 125.085938 172.332031 121.042969 170.910156 C 120.386719 170.691406 119.074219 170.253906 118.417969 169.984375 C 113.171875 168.398438 107.597656 168.070312 102.132812 168.289062 C 98.140625 168.78125 94.207031 169.710938 90.382812 171.019531 C 77.921875 175.394531 67.972656 184.683594 60.214844 195.175781 C 66.71875 205.179688 75.84375 213.648438 86.773438 218.460938 C 92.074219 220.753906 97.648438 222.285156 103.445312 222.722656 C 107.925781 222.941406 112.460938 222.503906 116.832031 221.464844 C 118.472656 220.972656 120.113281 220.425781 121.753906 219.824219 C 122.132812 219.660156 122.953125 219.277344 123.335938 219.113281 C 132.738281 214.6875 140.714844 207.308594 146.074219 198.402344 C 138.804688 197.964844 131.535156 197.691406 124.265625 197.199219 C 121.914062 197.089844 119.566406 196.925781 117.214844 196.871094 C 114.429688 196.761719 111.585938 196.707031 108.800781 196.761719 L 108.472656 194.519531 C 110.546875 194.464844 112.625 194.359375 114.703125 194.304688 C 115.25 194.304688 116.339844 194.25 116.941406 194.25 Z M 116.941406 194.25 " fill-opacity="1" fill-rule="nonzero"/><path fill="#ffffff" d="M 152.355469 269.886719 C 154.324219 267.320312 156.074219 264.53125 157.605469 261.632812 C 158.53125 259.613281 159.296875 257.535156 160.007812 255.402344 C 162.742188 246.277344 162.195312 236.550781 160.882812 227.257812 C 155.199219 231.738281 150.007812 236.824219 144.542969 241.632812 C 142.027344 243.871094 139.460938 246.113281 137.054688 248.410156 C 132.738281 252.070312 128.417969 255.675781 124.484375 259.667969 L 124.648438 259.011719 C 126.890625 256.003906 129.511719 253.382812 132.027344 250.59375 C 135.6875 246.550781 139.242188 242.398438 142.902344 238.351562 C 147.382812 233.269531 151.976562 228.351562 156.402344 223.214844 C 155.144531 222.886719 153.886719 222.503906 152.628906 222.121094 C 145.855469 221.574219 138.96875 221.519531 132.246094 222.777344 C 127.65625 223.761719 123.226562 225.507812 119.183594 227.804688 C 114.976562 230.375 111.203125 233.597656 108.035156 237.367188 C 106.558594 239.226562 105.191406 241.140625 103.933594 243.105469 C 102.296875 246.277344 100.820312 249.5 99.5625 252.835938 C 96.011719 263.382812 96.121094 274.640625 97.378906 285.519531 C 107.050781 287.976562 117.488281 287.484375 127.21875 285.410156 C 134.59375 283.386719 141.644531 279.941406 147.4375 274.914062 C 149.242188 273.441406 150.828125 271.691406 152.355469 269.886719 Z M 152.355469 269.886719 " fill-opacity="1" fill-rule="nonzero"/><path fill="#ffffff" d="M 201.324219 197.582031 C 200.070312 191.351562 195.75 184.519531 188.648438 184.574219 C 180.832031 184.136719 175.585938 192.0625 175.3125 199.167969 C 174.601562 207.089844 179.683594 216.820312 188.59375 216.546875 C 197.9375 216.4375 202.527344 205.726562 201.324219 197.582031 Z M 201.324219 197.582031 " fill-opacity="1" fill-rule="nonzero"/><path fill="#ffffff" d="M 251.496094 197.308594 C 244.445312 197.582031 237.453125 198.019531 230.402344 198.457031 C 233.625 203.429688 237.507812 208.019531 242.042969 211.957031 C 246.085938 215.34375 250.675781 218.023438 255.597656 219.988281 C 260.953125 222.175781 266.691406 222.832031 272.429688 222.777344 C 274.066406 222.613281 275.652344 222.449219 277.292969 222.285156 C 282.921875 221.410156 288.222656 219.277344 293.359375 216.820312 C 302.707031 211.683594 310.519531 204.085938 316.535156 195.339844 C 311.011719 187.746094 304.347656 180.804688 296.367188 175.722656 C 288.332031 171.238281 279.207031 167.46875 269.804688 168.289062 C 264.722656 167.851562 259.695312 169.273438 255.050781 171.128906 C 253.464844 171.675781 251.988281 172.386719 250.511719 173.097656 C 242.316406 177.742188 235.59375 184.628906 230.292969 192.335938 C 238.925781 193.265625 247.671875 193.101562 256.359375 193.976562 L 257.125 193.976562 C 254.667969 194.847656 252.097656 195.066406 249.53125 195.011719 C 249.53125 195.175781 249.53125 195.503906 249.53125 195.667969 C 253.355469 195.503906 257.289062 195.339844 261.007812 196.652344 C 259.476562 196.707031 257.945312 196.816406 256.414062 196.925781 C 254.777344 197.089844 253.136719 197.199219 251.496094 197.308594 Z M 251.496094 197.308594 " fill-opacity="1" fill-rule="nonzero"/><g clip-path="url(#5b204b3b09)"><path fill="#ffffff" d="M 180.285156 225.671875 C 177.277344 216.382812 172.632812 207.746094 167.113281 199.714844 C 161.046875 191.1875 153.394531 183.425781 143.667969 179.328125 C 147.820312 183.808594 152.140625 188.128906 155.691406 193.15625 C 162.796875 202.882812 167.550781 214.195312 170.230469 225.890625 C 171.265625 230.703125 171.867188 235.621094 172.195312 240.539062 C 172.742188 249.011719 171.8125 257.480469 170.121094 265.734375 L 169.738281 267.480469 C 165.691406 285.519531 155.910156 301.804688 143.449219 315.25 C 163.234375 307.707031 180.066406 290.820312 183.890625 269.558594 C 184.601562 266.007812 185.09375 262.453125 185.257812 258.847656 C 185.367188 253.765625 185.3125 248.628906 184.546875 243.597656 C 183.726562 237.476562 182.308594 231.464844 180.285156 225.671875 Z M 180.285156 225.671875 " fill-opacity="1" fill-rule="nonzero"/></g><path fill="#ffffff" d="M 71.636719 244.308594 C 79.503906 240.539062 88.03125 237.75 94.917969 232.339844 C 92.730469 231.136719 90.546875 229.9375 88.195312 228.953125 C 82.074219 226.273438 74.859375 226.054688 68.738281 228.898438 C 59.503906 232.941406 53.875 242.179688 51.140625 251.578125 C 51.359375 252.179688 51.796875 253.328125 52.070312 253.929688 C 53.546875 254.695312 54.96875 255.457031 56.496094 256.167969 C 66.609375 260.980469 79.886719 260.761719 88.46875 252.835938 C 93.003906 248.191406 95.628906 242.125 96.941406 235.839844 C 88.46875 238.625 80.214844 242.015625 71.636719 244.308594 Z M 71.636719 244.308594 " fill-opacity="1" fill-rule="nonzero"/><path fill="#ffffff" d="M 274.285156 245.839844 C 273.195312 243.761719 271.9375 241.796875 270.625 239.882812 C 268.492188 236.988281 266.089844 234.308594 263.464844 231.847656 C 259.96875 229.171875 256.25 226.875 252.261719 225.125 C 248.273438 223.542969 244.117188 222.558594 239.855469 222.121094 C 233.296875 221.246094 226.683594 221.957031 220.179688 223.050781 C 223.40625 226.820312 226.738281 230.539062 230.074219 234.199219 C 232.367188 236.769531 234.664062 239.28125 236.960938 241.796875 C 239.964844 245.238281 242.972656 248.628906 245.976562 252.015625 C 248.601562 255.132812 251.386719 258.027344 254.121094 261.035156 C 251.441406 258.847656 248.875 256.550781 246.359375 254.203125 C 242.917969 251.03125 239.363281 248.027344 235.867188 244.964844 C 229.144531 239.28125 223.132812 232.558594 215.753906 227.695312 C 214.441406 237.3125 213.949219 247.425781 217.175781 256.714844 C 218.761719 261.523438 221.273438 266.007812 224.445312 269.996094 C 226.300781 272.238281 228.324219 274.257812 230.566406 276.117188 C 231.929688 277.15625 233.351562 278.140625 234.828125 279.015625 C 239.472656 281.910156 244.554688 284.097656 249.910156 285.355469 C 259.585938 287.648438 270.078125 288.359375 279.644531 285.246094 C 279.863281 276.554688 281.007812 267.699219 278.824219 259.121094 C 277.839844 254.585938 276.253906 250.101562 274.285156 245.839844 Z M 274.285156 245.839844 " fill-opacity="1" fill-rule="nonzero"/><path fill="#ffffff" d="M 205.425781 256.988281 C 204.824219 251.578125 204.496094 246.167969 204.824219 240.757812 C 205.316406 234.144531 206.246094 227.53125 208.046875 221.082031 L 208.046875 220.972656 C 212.367188 205.015625 221.4375 190.804688 233.296875 179.4375 C 220.945312 184.574219 212.039062 195.449219 205.371094 206.707031 C 202.199219 212.394531 199.140625 218.242188 197.117188 224.472656 C 194.878906 231.027344 193.183594 237.859375 192.417969 244.746094 C 191.980469 248.847656 191.707031 253 191.816406 257.152344 C 192.144531 263.054688 193.019531 268.902344 194.660156 274.53125 C 199.960938 293.113281 215.097656 307.324219 232.476562 314.921875 L 233.242188 314.757812 C 225.535156 306.339844 218.707031 297.050781 213.949219 286.554688 C 209.578125 277.210938 206.628906 267.210938 205.425781 256.988281 Z M 205.425781 256.988281 " fill-opacity="1" fill-rule="nonzero"/></svg>